<svg width="176" height="27" viewBox="0 0 176 27" fill="none" xmlns="http://www.w3.org/2000/svg">
<path d="M0.567383 24H3.73145V14.4785C3.73145 12.501 5.06445 11.0361 6.93945 11.0361C8.72656 11.0361 9.85449 12.1641 9.85449 13.9365V24H12.96V14.376C12.96 12.4277 14.2637 11.0361 16.1387 11.0361C18.0137 11.0361 19.083 12.1787 19.083 14.1709V24H22.2617V13.4092C22.2617 10.3477 20.2695 8.32617 17.2227 8.32617C15.0254 8.32617 13.209 9.46875 12.418 11.3438H12.3447C11.7295 9.4248 10.1768 8.32617 8.03809 8.32617C5.95801 8.32617 4.34668 9.46875 3.6582 11.1826H3.58496V8.58984H0.567383V24ZM31.7686 10.8604C33.9805 10.8604 35.4746 12.5156 35.5479 14.874H27.8428C28.0039 12.5449 29.5566 10.8604 31.7686 10.8604ZM35.5332 19.4736C35.1084 20.8213 33.7754 21.7295 31.9736 21.7295C29.4395 21.7295 27.8281 19.957 27.8281 17.2764V17.0859H38.7119V16.002C38.7119 11.3291 36.0459 8.31152 31.7686 8.31152C27.418 8.31152 24.6348 11.5342 24.6348 16.3682C24.6348 21.2314 27.374 24.293 31.9004 24.293C35.4307 24.293 38.0967 22.2861 38.5361 19.4736H35.5332ZM54.4004 13.8926C54.1221 10.8604 51.7051 8.31152 47.7354 8.31152C43.3555 8.31152 40.4844 11.4023 40.4844 16.2949C40.4844 21.2754 43.3555 24.293 47.7646 24.293C51.4707 24.293 54.0928 22.0664 54.4297 18.7852H51.3828C51.0166 20.5723 49.7422 21.6416 47.7939 21.6416C45.333 21.6416 43.707 19.6787 43.707 16.2949C43.707 12.9844 45.3184 10.9482 47.7646 10.9482C49.8301 10.9482 51.0605 12.252 51.3828 13.8926H54.4004ZM65.4746 24H68.6533V11.0947H71.7295V8.61914H68.6094V7.16895C68.6094 5.80664 69.2539 5.11816 70.6309 5.11816C71.0557 5.11816 71.4805 5.14746 71.7881 5.20605V2.8623C71.3779 2.78906 70.6602 2.71582 70.0156 2.71582C66.8809 2.71582 65.4746 4.12207 65.4746 7.11035V8.61914H63.3506V11.0947H65.4746V24ZM74.3223 24H77.4863V8.58984H74.3223V24ZM75.9043 6.33398C76.9297 6.33398 77.75 5.52832 77.75 4.53223C77.75 3.52148 76.9297 2.71582 75.9043 2.71582C74.8936 2.71582 74.0732 3.52148 74.0732 4.53223C74.0732 5.52832 74.8936 6.33398 75.9043 6.33398ZM80.7236 24H83.8877V15.0205C83.8877 12.6328 85.3232 11.0508 87.5498 11.0508C89.7471 11.0508 90.8311 12.3252 90.8311 14.6396V24H94.0098V14.0244C94.0098 10.4941 92.0615 8.32617 88.6631 8.32617C86.29 8.32617 84.6494 9.41016 83.8145 11.168H83.7412V8.58984H80.7236V24ZM102.462 21.7588C100.763 21.7588 99.6494 20.8799 99.6494 19.5322C99.6494 18.2139 100.719 17.3789 102.608 17.2471L106.402 17.0127V18.2285C106.402 20.2354 104.674 21.7588 102.462 21.7588ZM101.583 24.2637C103.604 24.2637 105.553 23.1797 106.446 21.4658H106.52V24H109.552V13.3799C109.552 10.2891 107.164 8.31152 103.429 8.31152C99.6201 8.31152 97.2471 10.3623 97.0713 13.1455H100.06C100.338 11.7686 101.48 10.8896 103.312 10.8896C105.245 10.8896 106.402 11.915 106.402 13.6289V14.8154L102.184 15.0645C98.5215 15.2695 96.4561 16.9248 96.4561 19.6201C96.4561 22.3887 98.5654 24.2637 101.583 24.2637ZM112.628 24H115.792V15.0205C115.792 12.6328 117.228 11.0508 119.454 11.0508C121.651 11.0508 122.735 12.3252 122.735 14.6396V24H125.914V14.0244C125.914 10.4941 123.966 8.32617 120.567 8.32617C118.194 8.32617 116.554 9.41016 115.719 11.168H115.646V8.58984H112.628V24ZM142.203 13.8926C141.925 10.8604 139.508 8.31152 135.538 8.31152C131.158 8.31152 128.287 11.4023 128.287 16.2949C128.287 21.2754 131.158 24.293 135.567 24.293C139.273 24.293 141.896 22.0664 142.232 18.7852H139.186C138.819 20.5723 137.545 21.6416 135.597 21.6416C133.136 21.6416 131.51 19.6787 131.51 16.2949C131.51 12.9844 133.121 10.9482 135.567 10.9482C137.633 10.9482 138.863 12.252 139.186 13.8926H142.203ZM150.919 10.8604C153.131 10.8604 154.625 12.5156 154.698 14.874H146.993C147.154 12.5449 148.707 10.8604 150.919 10.8604ZM154.684 19.4736C154.259 20.8213 152.926 21.7295 151.124 21.7295C148.59 21.7295 146.979 19.957 146.979 17.2764V17.0859H157.862V16.002C157.862 11.3291 155.196 8.31152 150.919 8.31152C146.568 8.31152 143.785 11.5342 143.785 16.3682C143.785 21.2314 146.524 24.293 151.051 24.293C154.581 24.293 157.247 22.2861 157.687 19.4736H154.684Z" fill="white"/>
<path d="M59.0439 24.1611C60.1133 24.1611 60.9629 23.3115 60.9629 22.2422C60.9629 21.1729 60.1133 20.3232 59.0439 20.3232C57.9746 20.3232 57.125 21.1729 57.125 22.2422C57.125 23.3115 57.9746 24.1611 59.0439 24.1611ZM169.112 26.0068V24.0586C173.404 23.707 175.88 21.4658 175.88 17.9062C175.88 14.8594 174.107 13.0283 170.475 12.1201L169.112 11.8125V5.26465C171.061 5.51367 172.394 6.81738 172.452 8.47266H175.514C175.426 5.23535 172.936 2.9209 169.112 2.59863V0.5625H167.105V2.59863C163.136 2.96484 160.719 5.19141 160.719 8.53125C160.719 11.373 162.521 13.3359 165.802 14.1562L167.105 14.4932V21.4219C164.894 21.1729 163.487 19.9277 163.341 18.126H160.235C160.25 21.5098 162.931 23.7949 167.105 24.0732V26.0068H169.112ZM172.774 18.1992C172.774 20.1328 171.441 21.334 169.112 21.4658V14.874C171.632 15.4014 172.774 16.4561 172.774 18.1992ZM163.854 8.31152C163.854 6.62695 165.23 5.36719 167.105 5.26465V11.3877C164.996 10.9482 163.854 9.89355 163.854 8.31152Z" fill="url(#paint0_linear)"/>
<defs>
<linearGradient id="paint0_linear" x1="88.5" y1="-5" x2="88.5" y2="31" gradientUnits="userSpaceOnUse">
<stop stop-color="#914EFF"/>
<stop offset="1" stop-color="#4484FF"/>
</linearGradient>
</defs>
</svg>
