<svg width="19" height="32" viewBox="0 0 19 32" fill="none" xmlns="http://www.w3.org/2000/svg">
<path d="M10.3373 32V29.4019C15.442 29.0543 18.6804 26.2367 18.6804 22.0286C18.6804 18.2962 16.5031 16.1921 11.3985 14.9114L10.3373 14.6369V4.68382C13.4477 4.95826 15.7347 6.97084 15.8262 9.49571H18.2047C18.0766 5.69011 14.8748 2.83591 10.3373 2.50658V0H8.43453V2.52487C3.73242 2.8725 0.640366 5.65352 0.640366 9.58719C0.640366 13.0269 2.81761 15.2041 7.42825 16.3751L8.43453 16.6495V27.243C4.97656 26.932 2.57976 24.9011 2.3785 22.1018H0C0.0548885 26.1818 3.49457 29.1092 8.43453 29.4202V32H10.3373ZM16.2653 22.2115C16.2653 25.1206 13.9234 27.1149 10.3373 27.2796V17.0337C14.5638 17.9851 16.2653 19.4854 16.2653 22.2115ZM3.03716 9.45912C3.03716 6.82447 5.32419 4.83019 8.43453 4.68382V14.2161C4.70212 13.3928 3.03716 11.9108 3.03716 9.45912Z" fill="#111111"/>
</svg>
